<svg xmlns="http://www.w3.org/2000/svg" width="1024" height="1024" viewBox="0 0 1024 1024">
  <defs>
    <filter id="s" x="-20%" y="-20%" width="140%" height="140%">
      <feDropShadow dx="0" dy="12" stdDeviation="18" flood-color="#000" flood-opacity="0.25"/>
    </filter>
  </defs>
  <rect x="96" y="88" width="832" height="832" rx="183" ry="183" fill="#FFFFFF" filter="url(#s)"/>
  <g transform="translate(171 163) scale(28.42)"><path fill="#F05032" d="M2.6 10.59L8.38 4.8l1.69 1.7c-.24.85.15 1.78.93 2.23v5.54c-.6.34-1 .99-1 1.73a2 2 0 0 0 2 2a2 2 0 0 0 2-2c0-.74-.4-1.39-1-1.73V9.41l2.07 2.09c-.07.15-.07.32-.07.5a2 2 0 0 0 2 2a2 2 0 0 0 2-2a2 2 0 0 0-2-2c-.18 0-.35 0-.5.07L13.93 7.5a1.98 1.98 0 0 0-1.15-2.34c-.43-.16-.88-.2-1.28-.09L9.8 3.38l.79-.78c.78-.79 2.04-.79 2.82 0l7.99 7.99c.79.78.79 2.04 0 2.82l-7.99 7.99c-.78.79-2.04.79-2.82 0L2.6 13.41c-.79-.78-.79-2.04 0-2.82"/></g>
</svg>
